<svg width="0" height="0" class="hidden">
  <symbol fill="none" xmlns="http://www.w3.org/2000/svg" viewBox="0 0 4 12" id="alert">
    <path d="M3.25 10.5C3.25 10.7472 3.17669 10.9889 3.03934 11.1945C2.90199 11.4 2.70676 11.5602 2.47836 11.6548C2.24995 11.7495 1.99861 11.7742 1.75614 11.726C1.51366 11.6778 1.29093 11.5587 1.11612 11.3839C0.941302 11.2091 0.82225 10.9863 0.774019 10.7439C0.725787 10.5014 0.750542 10.2501 0.845151 10.0216C0.939761 9.79324 1.09998 9.59801 1.30554 9.46066C1.5111 9.32331 1.75277 9.25 2 9.25C2.33152 9.25 2.64946 9.3817 2.88388 9.61612C3.1183 9.85054 3.25 10.1685 3.25 10.5ZM2 8C2.19891 8 2.38968 7.92098 2.53033 7.78033C2.67098 7.63968 2.75 7.44891 2.75 7.25V1C2.75 0.801088 2.67098 0.610322 2.53033 0.46967C2.38968 0.329018 2.19891 0.25 2 0.25C1.80109 0.25 1.61032 0.329018 1.46967 0.46967C1.32902 0.610322 1.25 0.801088 1.25 1V7.25C1.25 7.44891 1.32902 7.63968 1.46967 7.78033C1.61032 7.92098 1.80109 8 2 8Z" fill="white"></path>
  </symbol>
  <symbol fill="none" xmlns="http://www.w3.org/2000/svg" viewBox="0 0 14 20" id="numberInput">
    <path d="M1 7.00009L6.29289 1.7072C6.68342 1.31668 7.31658 1.31668 7.70711 1.7072L13 7.00009M1 13.0001L6.29289 18.293C6.68342 18.6835 7.31658 18.6835 7.70711 18.293L13 13.0001" stroke="#4FF6B1" stroke-width="2" stroke-linecap="round"></path>
  </symbol>
  <symbol fill="none" xmlns="http://www.w3.org/2000/svg" viewBox="0 0 11 10" id="checkbox">
    <path d="M1.33331 6.33333L3.48865 7.95C3.62622 8.05315 3.79833 8.09916 3.96902 8.07842C4.13971 8.05767 4.29579 7.97177 4.40465 7.83867L9.99998 1" stroke="#141416" stroke-width="2" stroke-linecap="round"></path>
  </symbol>
  <symbol fill="none" xmlns="http://www.w3.org/2000/svg" viewBox="0 0 7 14" id="arrowRight">
    <path d="M1 1L5.8 7L0.999999 13" stroke="white" stroke-width="2" stroke-linecap="round" stroke-linejoin="round"></path>
  </symbol>
  <symbol fill="none" xmlns="http://www.w3.org/2000/svg" viewBox="0 0 7 14" id="arrowLeft">
    <path d="M6 1L1.2 7L6 13" stroke="white" stroke-width="2" stroke-linecap="round" stroke-linejoin="round"></path>
  </symbol>
  <symbol fill="none" xmlns="http://www.w3.org/2000/svg" viewBox="0 0 64 64" id="upload">
    <path opacity="0.4" d="M58.6666 50.6663V42.6663C58.6666 38.248 55.0849 34.6663 50.6666 34.6663H47.9999C46.3212 34.6663 44.7405 35.4566 43.7332 36.7996L40.5332 41.0663C38.5188 43.7522 35.3573 45.3329 31.9999 45.3329C28.6425 45.3329 25.481 43.7522 23.4666 41.0663L20.2666 36.7996C19.2594 35.4566 17.6786 34.6663 15.9999 34.6663H13.3333C8.91497 34.6663 5.33325 38.248 5.33325 42.6663V50.6663C5.33325 55.0845 8.91497 58.6663 13.3333 58.6663H50.6666C55.0849 58.6663 58.6666 55.0845 58.6666 50.6663Z" fill="#4FF6B1"></path>
    <path fill-rule="evenodd" clip-rule="evenodd" d="M13.3332 34.6668H15.9998C17.6785 34.6668 19.2593 35.4572 20.2665 36.8002L23.4665 41.0668C25.481 43.7528 28.6424 45.3335 31.9998 45.3335C35.3573 45.3335 38.5187 43.7528 40.5332 41.0668L43.7332 36.8002C44.7404 35.4572 46.3211 34.6668 47.9998 34.6668H50.6665C51.6015 34.6668 52.4991 34.8272 53.3332 35.122V16.0002C53.3332 10.1091 48.5575 5.3335 42.6665 5.3335H21.3332C15.4421 5.3335 10.6665 10.1091 10.6665 16.0002V35.122C11.5006 34.8272 12.3981 34.6668 13.3332 34.6668ZM29.6429 18.5186C29.7561 18.4054 29.8755 18.302 29.9999 18.2085V29.3332C29.9999 30.4377 30.8953 31.3332 31.9999 31.3332C33.1045 31.3332 33.9999 30.4377 33.9999 29.3332V18.2085C34.1243 18.302 34.2437 18.4054 34.3569 18.5186L38.5857 22.7474C39.3668 23.5284 40.6331 23.5284 41.4141 22.7474C42.1952 21.9663 42.1952 20.7 41.4141 19.919L37.1854 15.6902C34.3215 12.8264 29.6783 12.8264 26.8145 15.6902L22.5857 19.919C21.8047 20.7 21.8047 21.9663 22.5857 22.7474C23.3668 23.5284 24.6331 23.5284 25.4141 22.7474L29.6429 18.5186Z" fill="#4FF6B1"></path>
  </symbol>
  <symbol fill="none" xmlns="http://www.w3.org/2000/svg" viewBox="0 0 14 8" id="arrowDown">
    <path d="M13 1L7 7L1 1" stroke="#4FF6B1" stroke-width="2" stroke-linecap="round" stroke-linejoin="round"></path>
  </symbol>
  <symbol fill="none" xmlns="http://www.w3.org/2000/svg" viewBox="0 0 166 40" id="logo">
    <path d="M19.436 16.5601L15.2178 15.8855C14.8975 15.8357 14.5704 15.9132 14.3064 16.1013C14.0425 16.2895 13.8626 16.5734 13.8052 16.8924C13.2333 20.1282 12.3388 20.7441 10.9507 20.7441C8.01795 20.7441 7.66113 16.5161 7.66113 13.3341C7.66113 6.9212 9.38166 6.09516 10.8822 6.09516C12.3828 6.09516 13.0622 7.01408 13.5315 9.59975C13.5954 9.91734 13.781 10.1973 14.0486 10.38C14.3162 10.5626 14.6445 10.6334 14.9636 10.5773L19.2307 9.8197C19.5401 9.76121 19.8158 9.58731 20.0019 9.3332C20.1879 9.07909 20.2704 8.76377 20.2327 8.45111C19.3089 2.68344 16.4055 0 11.0826 0C7.17235 0 0.563965 1.73519 0.563965 13.3536C0.563965 24.366 6.19478 26.6779 10.9164 26.6779C16.1122 26.6779 19.2258 23.8527 20.4527 18.0509C20.4903 17.8833 20.4924 17.7097 20.4587 17.5413C20.425 17.3729 20.3563 17.2135 20.2571 17.0733C20.1618 16.9369 20.04 16.8211 19.8989 16.733C19.7578 16.6448 19.6003 16.586 19.436 16.5601Z" fill="white"></path>
    <path d="M37.3156 16.2719C37.2717 16.169 37.2669 16.0537 37.302 15.9475C37.3371 15.8414 37.4097 15.7516 37.5062 15.6951C39.608 14.3852 40.8104 11.9804 40.8104 9.10631C40.8104 3.38263 37.6822 0.479248 31.5235 0.479248H24.2112C23.8846 0.479248 23.5713 0.609024 23.3403 0.84002C23.1093 1.07102 22.9795 1.3843 22.9795 1.71098V25.0114C22.9795 25.3381 23.1093 25.6514 23.3403 25.8824C23.5713 26.1134 23.8846 26.2431 24.2112 26.2431H28.6396C28.9663 26.2431 29.2796 26.1134 29.5106 25.8824C29.7416 25.6514 29.8714 25.3381 29.8714 25.0114V18.1684C29.8727 18.0487 29.9211 17.9343 30.0062 17.8501C30.0913 17.7659 30.2062 17.7187 30.3259 17.7187C30.4125 17.7185 30.4973 17.7433 30.5702 17.7901C30.643 17.837 30.7008 17.9038 30.7365 17.9827L34.158 25.5051C34.2564 25.7207 34.4146 25.9035 34.6139 26.0318C34.8132 26.16 35.0452 26.2283 35.2822 26.2285H39.9208C40.1267 26.2289 40.3295 26.1776 40.5105 26.0794C40.6915 25.9812 40.8451 25.8392 40.957 25.6664C41.068 25.4926 41.1341 25.2941 41.1494 25.0885C41.1648 24.8829 41.1289 24.6767 41.045 24.4884L37.3156 16.2719ZM31.3377 12.2248H30.3259C30.2062 12.2248 30.0913 12.1775 30.0062 12.0934C29.9211 12.0092 29.8727 11.8948 29.8714 11.7751V6.88722C29.8727 6.76751 29.9211 6.65314 30.0062 6.56895C30.0913 6.48475 30.2062 6.43754 30.3259 6.43755H31.3377C33.3417 6.43755 34.0554 7.16583 34.0554 9.22362C34.0554 11.384 33.2929 12.2003 31.3377 12.2003V12.2248Z" fill="white"></path>
    <path d="M58.4508 20.3384H50.9186C50.7994 20.3384 50.685 20.291 50.6007 20.2067C50.5163 20.1223 50.469 20.008 50.469 19.8887V16.2375C50.469 16.1784 50.4806 16.12 50.5032 16.0654C50.5258 16.0108 50.5589 15.9613 50.6007 15.9195C50.6424 15.8777 50.692 15.8446 50.7466 15.822C50.8011 15.7994 50.8596 15.7878 50.9186 15.7878H55.5132C55.8404 15.7865 56.1536 15.6556 56.3845 15.4239C56.6154 15.1921 56.745 14.8783 56.745 14.5512V11.3056C56.745 10.9789 56.6152 10.6657 56.3842 10.4347C56.1532 10.2037 55.8399 10.0739 55.5132 10.0739H50.9186C50.8596 10.0739 50.8011 10.0623 50.7466 10.0397C50.692 10.0171 50.6424 9.98393 50.6007 9.94218C50.5589 9.90042 50.5258 9.85085 50.5032 9.79629C50.4806 9.74173 50.469 9.68325 50.469 9.6242V6.95054C50.469 6.83128 50.5163 6.7169 50.6007 6.63257C50.685 6.54823 50.7994 6.50087 50.9186 6.50087H58.0451C58.3718 6.50087 58.6851 6.37109 58.9161 6.14009C59.1471 5.9091 59.2769 5.5958 59.2769 5.26912V1.68632C59.2769 1.35965 59.1471 1.04634 58.9161 0.815347C58.6851 0.584351 58.3718 0.45459 58.0451 0.45459H44.6377C44.3111 0.45459 43.9978 0.584351 43.7668 0.815347C43.5358 1.04634 43.406 1.35965 43.406 1.68632V24.9867C43.406 25.3134 43.5358 25.6267 43.7668 25.8577C43.9978 26.0887 44.3111 26.2185 44.6377 26.2185H58.4508C58.7775 26.2185 59.0908 26.0887 59.3218 25.8577C59.5528 25.6267 59.6826 25.3134 59.6826 24.9867V21.5652C59.6813 21.2394 59.5509 20.9274 59.3201 20.6974C59.0892 20.4675 58.7767 20.3384 58.4508 20.3384Z" fill="white"></path>
    <path d="M87.9102 0.454641H84.127C83.8379 0.452647 83.5575 0.553195 83.3356 0.738443C83.1136 0.923692 82.9646 1.18163 82.9148 1.46642L81.4485 9.65357C81.2285 10.8462 81.0526 11.8287 80.8668 13.0751C80.7006 11.9606 80.5296 11.0319 80.334 9.97617L78.8335 1.49574C78.7837 1.20966 78.6341 0.950497 78.4113 0.764339C78.1884 0.57818 77.9068 0.477097 77.6164 0.479074H73.4617C73.1716 0.478072 72.8905 0.579498 72.6678 0.765487C72.4451 0.951476 72.2953 1.21009 72.2446 1.49574L70.8516 9.47762L70.6952 10.3183C70.5241 11.247 70.3775 12.0633 70.2064 13.124C70.0158 11.8238 69.8496 10.9195 69.6296 9.70245L68.1633 1.49574C68.1127 1.21139 67.9633 0.954012 67.7416 0.768933C67.5198 0.583854 67.2399 0.482947 66.9511 0.483967H62.6595C62.4723 0.480513 62.2867 0.520143 62.1172 0.599809C61.9477 0.679475 61.7988 0.797048 61.682 0.943427C61.5669 1.08721 61.4853 1.25478 61.4431 1.434C61.4008 1.61322 61.3989 1.79961 61.4376 1.97965L66.6383 25.3827C66.6956 25.6591 66.8466 25.9073 67.0656 26.0854C67.2846 26.2634 67.5584 26.3605 67.8407 26.3603H71.9269C72.2165 26.3611 72.497 26.2595 72.7188 26.0734C72.9406 25.8874 73.0895 25.6288 73.1391 25.3436L75.2947 13.339L77.4209 25.2898C77.4714 25.5747 77.6205 25.8326 77.8422 26.0185C78.0638 26.2044 78.3438 26.3063 78.6331 26.3065H82.7242C83.0065 26.3068 83.2803 26.2097 83.4993 26.0316C83.7183 25.8535 83.8693 25.6053 83.9266 25.3289L89.1224 1.93077C89.1637 1.75051 89.1637 1.56325 89.1223 1.383C89.081 1.20275 88.9995 1.03417 88.8839 0.889861C88.7683 0.745553 88.6215 0.629258 88.4546 0.54966C88.2877 0.470061 88.1049 0.429215 87.92 0.430193L87.9102 0.454641Z" fill="white"></path>
    <path d="M104.201 10.7436H99.8751C99.8253 10.7442 99.7758 10.735 99.7296 10.7164C99.6834 10.6977 99.6413 10.6701 99.6058 10.6351C99.5704 10.6001 99.5422 10.5584 99.523 10.5124C99.5038 10.4664 99.4939 10.4171 99.4939 10.3672V6.94574C99.4952 6.84548 99.5359 6.74975 99.6073 6.6793C99.6786 6.60886 99.7749 6.56936 99.8751 6.56937H106.664C107.01 6.56808 107.341 6.43017 107.586 6.1857C107.83 5.94123 107.968 5.61005 107.969 5.26432V1.68151C107.968 1.33579 107.83 1.00459 107.586 0.760119C107.341 0.515651 107.01 0.377752 106.664 0.376465H93.5942C93.2485 0.377752 92.9173 0.515651 92.6728 0.760119C92.4284 1.00459 92.2905 1.33579 92.2892 1.68151V24.9819C92.2905 25.3277 92.4284 25.6589 92.6728 25.9033C92.9173 26.1478 93.2485 26.2857 93.5942 26.287H98.1742C98.5203 26.287 98.8522 26.1495 99.097 25.9047C99.3417 25.66 99.4792 25.328 99.4792 24.9819V16.9805C99.4792 16.9307 99.4891 16.8813 99.5083 16.8353C99.5276 16.7894 99.5557 16.7476 99.5912 16.7126C99.6266 16.6776 99.6687 16.65 99.7149 16.6314C99.7612 16.6127 99.8107 16.6035 99.8605 16.6041H104.186C104.359 16.6054 104.53 16.5725 104.691 16.5073C104.851 16.442 104.996 16.3457 105.119 16.2239C105.242 16.1022 105.339 15.9573 105.405 15.7978C105.472 15.6382 105.506 15.467 105.506 15.2942V12.0486C105.505 11.7029 105.367 11.3717 105.122 11.1273C104.878 10.8828 104.547 10.7449 104.201 10.7436ZM104.577 15.2942C104.577 15.3945 104.538 15.4907 104.467 15.5621C104.397 15.6334 104.301 15.6742 104.201 15.6754H99.8751C99.7034 15.6748 99.5331 15.7081 99.3742 15.7734C99.2153 15.8387 99.0709 15.9347 98.9492 16.056C98.8275 16.1772 98.7309 16.3213 98.665 16.48C98.5991 16.6386 98.5652 16.8087 98.5652 16.9805V24.9868C98.5652 25.0866 98.5255 25.1824 98.455 25.2529C98.3844 25.3235 98.2886 25.3632 98.1888 25.3632H93.5942C93.4944 25.3632 93.3987 25.3235 93.3281 25.2529C93.2575 25.1824 93.2179 25.0866 93.2179 24.9868V1.68641C93.2172 1.6368 93.2265 1.58756 93.2452 1.5416C93.2639 1.49564 93.2916 1.45388 93.3266 1.4188C93.3617 1.38372 93.4035 1.35603 93.4494 1.33734C93.4954 1.31866 93.5446 1.30939 93.5942 1.31005H106.664C106.764 1.31005 106.86 1.3497 106.931 1.42028C107.001 1.49086 107.041 1.58659 107.041 1.68641V5.2692C107.041 5.36902 107.001 5.46476 106.931 5.53534C106.86 5.60592 106.764 5.64557 106.664 5.64557H99.8751C99.5286 5.64557 99.1961 5.7829 98.9506 6.02751C98.7051 6.27212 98.5665 6.60405 98.5652 6.95062V10.3721C98.5665 10.7187 98.7051 11.0506 98.9506 11.2952C99.1961 11.5398 99.5286 11.6772 99.8751 11.6772H104.201C104.3 11.6784 104.395 11.7185 104.466 11.7888C104.536 11.8591 104.576 11.9541 104.577 12.0535V15.2942Z" fill="white"></path>
    <path d="M118.063 14.776C117.897 14.0966 117.736 13.4807 117.574 12.8942C117.174 11.4239 116.848 9.93448 116.597 8.43155L116.533 8.04053H115.673L115.609 8.43644C115.371 9.89836 115.045 11.3445 114.632 12.7671C114.461 13.3829 114.28 14.0379 114.089 14.776L113.439 17.2492H118.635L118.068 14.8053L118.063 14.776ZM114.642 16.3157L114.964 15.0057C115.155 14.2725 115.331 13.6224 115.502 13.0115C115.717 12.2245 115.917 11.4962 116.098 10.7386C116.279 11.5305 116.479 12.3027 116.695 13.1288C116.846 13.7104 117.002 14.3214 117.183 14.996L117.486 16.3157H114.642Z" fill="white"></path>
    <path d="M119.926 1.22167C119.846 0.950174 119.68 0.71172 119.454 0.541762C119.228 0.371803 118.953 0.279416 118.67 0.27832H113.816C113.534 0.279682 113.259 0.372257 113.034 0.542254C112.808 0.712251 112.644 0.950565 112.565 1.22167L105.761 24.6198C105.705 24.8142 105.695 25.0189 105.731 25.2179C105.768 25.4168 105.85 25.6046 105.971 25.7665C106.092 25.9285 106.249 26.0601 106.43 26.1512C106.611 26.2423 106.81 26.2903 107.012 26.2915H111.084C111.373 26.2918 111.653 26.1959 111.882 26.0189C112.11 25.8419 112.273 25.5938 112.345 25.3139L113.102 22.3568C113.124 22.2758 113.171 22.2042 113.238 22.1529C113.304 22.1017 113.385 22.0737 113.469 22.0733H118.572C118.656 22.0748 118.737 22.1038 118.804 22.1559C118.87 22.2079 118.917 22.2802 118.938 22.3616L119.667 25.2944C119.739 25.5747 119.903 25.8228 120.132 25.9998C120.362 26.1768 120.643 26.2725 120.933 26.2719H125.469C125.672 26.2728 125.872 26.2261 126.054 26.1356C126.235 26.0451 126.393 25.9134 126.515 25.7509C126.636 25.5884 126.718 25.3997 126.754 25.1999C126.79 25.0001 126.778 24.7948 126.72 24.6003L119.926 1.22167ZM125.791 25.2113C125.756 25.2585 125.71 25.2967 125.658 25.3231C125.605 25.3494 125.547 25.363 125.488 25.3628H120.952C120.868 25.3621 120.786 25.3334 120.72 25.2812C120.653 25.229 120.606 25.1563 120.586 25.0744L119.857 22.1417C119.785 21.861 119.622 21.6123 119.392 21.4352C119.163 21.2581 118.881 21.1627 118.591 21.1641H113.474C113.184 21.1644 112.903 21.2604 112.674 21.4373C112.445 21.6141 112.281 21.8618 112.208 22.1417L111.45 25.0744C111.43 25.1554 111.384 25.2274 111.318 25.2788C111.253 25.3302 111.172 25.3581 111.089 25.3579H107.017C106.959 25.3585 106.901 25.3451 106.849 25.3187C106.797 25.2923 106.753 25.2538 106.719 25.2064C106.684 25.1594 106.66 25.1051 106.649 25.0475C106.638 24.9899 106.64 24.9306 106.655 24.874L113.459 1.47585C113.482 1.39751 113.53 1.32862 113.595 1.27934C113.66 1.23006 113.739 1.20301 113.821 1.20213H118.67C118.751 1.20222 118.831 1.22898 118.896 1.27837C118.962 1.32776 119.009 1.3971 119.031 1.47585L125.835 24.874C125.852 24.9309 125.856 24.991 125.846 25.0496C125.836 25.1082 125.812 25.1635 125.777 25.2113H125.791Z" fill="white"></path>
    <path d="M136.696 5.5769H135.684C135.338 5.5769 135.006 5.71441 134.761 5.95916C134.516 6.2039 134.379 6.53585 134.379 6.88197V11.7698C134.378 11.9414 134.412 12.1114 134.477 12.27C134.542 12.4286 134.638 12.5728 134.76 12.6941C134.881 12.8154 135.025 12.9115 135.184 12.9769C135.342 13.0422 135.512 13.0755 135.684 13.0749H136.696C139.14 13.0749 140.269 11.8578 140.269 9.2379C140.269 6.70111 139.169 5.5769 136.696 5.5769ZM136.696 12.1266H135.684C135.634 12.1273 135.585 12.118 135.539 12.0993C135.493 12.0806 135.451 12.0529 135.416 12.0179C135.381 11.9828 135.354 11.941 135.335 11.8951C135.316 11.8491 135.307 11.7999 135.308 11.7503V6.86241C135.308 6.76259 135.347 6.66687 135.418 6.59629C135.488 6.5257 135.584 6.48605 135.684 6.48605H136.696C138.651 6.48605 139.34 7.17035 139.34 9.19881C139.34 11.3397 138.622 12.1266 136.696 12.1266Z" fill="white"></path>
    <path d="M143.231 16.218C143.193 16.131 143.189 16.033 143.218 15.9428C143.248 15.8526 143.31 15.7766 143.392 15.7292C145.514 14.4046 146.731 11.9802 146.731 9.07684C146.731 3.30428 143.578 0.376465 137.356 0.376465H130.058C129.713 0.377752 129.381 0.515651 129.137 0.760119C128.892 1.00459 128.754 1.33579 128.753 1.68151V24.9819C128.754 25.3277 128.892 25.6589 129.137 25.9033C129.381 26.1478 129.713 26.2857 130.058 26.287H134.487C134.833 26.287 135.166 26.1496 135.411 25.905C135.657 25.6604 135.795 25.3285 135.797 24.9819V18.1389C135.798 18.0535 135.828 17.971 135.882 17.905C135.937 17.839 136.012 17.7935 136.095 17.7758C136.179 17.7582 136.266 17.7696 136.342 17.808C136.419 17.8465 136.48 17.9097 136.515 17.9874L139.937 25.5049C140.04 25.7334 140.207 25.9273 140.418 26.0634C140.628 26.1995 140.874 26.272 141.124 26.2723H145.763C145.981 26.2716 146.195 26.2166 146.387 26.1121C146.578 26.0077 146.74 25.8571 146.859 25.6741C146.977 25.4911 147.048 25.2815 147.065 25.0642C147.082 24.8468 147.044 24.6287 146.956 24.4296L143.231 16.218ZM146.076 25.1921C146.041 25.2446 145.994 25.2878 145.938 25.3176C145.883 25.3475 145.821 25.3631 145.758 25.3632H141.119C141.047 25.3627 140.976 25.3412 140.915 25.3013C140.854 25.2615 140.807 25.2048 140.777 25.1383L137.356 17.6208C137.232 17.3498 137.02 17.1291 136.754 16.9954C136.488 16.8617 136.184 16.8231 135.893 16.8858C135.602 16.9486 135.341 17.1091 135.154 17.3406C134.966 17.5721 134.864 17.8607 134.863 18.1585V25.0015C134.862 25.1017 134.821 25.1975 134.75 25.2679C134.678 25.3384 134.582 25.3778 134.482 25.3778H130.053C129.954 25.3766 129.859 25.3365 129.789 25.2662C129.718 25.1959 129.678 25.1009 129.677 25.0015V1.68641C129.677 1.58659 129.717 1.49086 129.787 1.42028C129.858 1.3497 129.954 1.31005 130.053 1.31005H137.351C143.114 1.31005 145.797 3.77841 145.797 9.08173C145.797 11.6967 144.766 13.779 142.899 14.9472C142.625 15.1125 142.421 15.3723 142.326 15.6775C142.23 15.9827 142.25 16.3123 142.381 16.6041L146.076 24.8304C146.107 24.8857 146.123 24.9479 146.123 25.0113C146.123 25.0746 146.107 25.1368 146.076 25.1921Z" fill="white"></path>
    <path d="M164.131 20.2649H156.599C156.499 20.2649 156.403 20.2252 156.333 20.1547C156.262 20.0841 156.223 19.9883 156.223 19.8885V16.2373C156.222 16.1877 156.231 16.1385 156.25 16.0925C156.269 16.0465 156.296 16.0048 156.331 15.9697C156.366 15.9346 156.408 15.9069 156.454 15.8883C156.5 15.8696 156.549 15.8603 156.599 15.8609H161.193C161.54 15.8596 161.872 15.7211 162.117 15.4755C162.361 15.23 162.499 14.8976 162.499 14.551V11.3055C162.497 10.9597 162.359 10.6285 162.115 10.3841C161.87 10.1396 161.539 10.0017 161.193 10.0004H156.599C156.549 10.0011 156.5 9.99178 156.454 9.9731C156.408 9.95442 156.366 9.92672 156.331 9.89164C156.296 9.85656 156.269 9.81481 156.25 9.76885C156.231 9.72289 156.222 9.67364 156.223 9.62404V6.95038C156.223 6.85056 156.262 6.75484 156.333 6.68425C156.403 6.61367 156.499 6.57402 156.599 6.57402H163.725C164.071 6.57273 164.402 6.43482 164.647 6.19035C164.891 5.94589 165.029 5.61468 165.03 5.26896V1.68617C165.029 1.34044 164.891 1.00924 164.647 0.764772C164.402 0.520305 164.071 0.382391 163.725 0.381104H150.318C149.972 0.382391 149.641 0.520305 149.397 0.764772C149.152 1.00924 149.014 1.34044 149.013 1.68617V24.9866C149.014 25.3323 149.152 25.6635 149.397 25.908C149.641 26.1524 149.972 26.2903 150.318 26.2916H164.131C164.477 26.2903 164.808 26.1524 165.052 25.908C165.297 25.6635 165.435 25.3323 165.436 24.9866V21.5651C165.434 21.2202 165.295 20.8902 165.051 20.6468C164.806 20.4034 164.476 20.2662 164.131 20.2649ZM164.507 24.9866C164.507 25.0864 164.468 25.1821 164.397 25.2527C164.327 25.3233 164.231 25.3629 164.131 25.3629H150.318C150.218 25.3629 150.122 25.3233 150.052 25.2527C149.981 25.1821 149.942 25.0864 149.942 24.9866V1.68617C149.941 1.63656 149.95 1.58732 149.969 1.54136C149.988 1.4954 150.015 1.45364 150.05 1.41856C150.085 1.38348 150.127 1.35579 150.173 1.3371C150.219 1.31842 150.268 1.30915 150.318 1.30981H163.725C163.775 1.30915 163.824 1.31842 163.87 1.3371C163.916 1.35579 163.958 1.38348 163.993 1.41856C164.028 1.45364 164.056 1.4954 164.074 1.54136C164.093 1.58732 164.102 1.63656 164.102 1.68617V5.26896C164.102 5.31856 164.093 5.36781 164.074 5.41377C164.056 5.45973 164.028 5.50148 163.993 5.53656C163.958 5.57164 163.916 5.59934 163.87 5.61802C163.824 5.6367 163.775 5.64599 163.725 5.64533H156.599C156.253 5.64533 155.921 5.78282 155.676 6.02757C155.431 6.27231 155.294 6.60426 155.294 6.95038V9.62404C155.294 9.97016 155.431 10.3021 155.676 10.5468C155.921 10.7916 156.253 10.9291 156.599 10.9291H161.193C161.293 10.9291 161.389 10.9688 161.46 11.0393C161.53 11.1099 161.57 11.2056 161.57 11.3055V14.551C161.57 14.6008 161.561 14.6503 161.543 14.6965C161.524 14.7428 161.496 14.7848 161.461 14.8203C161.426 14.8558 161.385 14.8839 161.339 14.9031C161.293 14.9224 161.243 14.9323 161.193 14.9323H156.599C156.427 14.9316 156.257 14.9649 156.099 15.0303C155.94 15.0956 155.796 15.1917 155.675 15.313C155.553 15.4344 155.457 15.5785 155.392 15.7371C155.326 15.8957 155.293 16.0657 155.294 16.2373V19.8885C155.294 20.2347 155.431 20.5666 155.676 20.8113C155.921 21.0561 156.253 21.1936 156.599 21.1936H164.131C164.181 21.1929 164.23 21.2022 164.276 21.2209C164.322 21.2396 164.364 21.2673 164.399 21.3024C164.434 21.3374 164.461 21.3792 164.48 21.4252C164.499 21.4711 164.508 21.5203 164.507 21.57V24.9866Z" fill="white"></path>
    <path d="M7.76084 38.2204H4.87244L4.40941 39.6001H2.43604L5.23624 31.7892H7.41908L10.2193 39.6001H8.22386L7.76084 38.2204ZM7.27576 36.7517L6.31664 33.8922L5.36853 36.7517H7.27576Z" fill="white"></path>
    <path d="M23.8709 38.1314H26.3404V39.6001H21.9857V31.7892H23.8709V38.1314Z" fill="white"></path>
    <path d="M40.0389 38.1314H42.5084V39.6001H38.1537V31.7892H40.0389V38.1314Z" fill="white"></path>
    <path d="M72.3899 38.2204H69.5015L69.0384 39.6001H67.0651L69.8653 31.7892H72.0481L74.8483 39.6001H72.8529L72.3899 38.2204ZM71.9048 36.7517L70.9457 33.8922L69.9976 36.7517H71.9048Z" fill="white"></path>
    <path d="M86.295 35.6835C86.295 34.9121 86.4604 34.226 86.7911 33.6251C87.1219 33.0169 87.5812 32.5459 88.1692 32.2121C88.7645 31.8708 89.437 31.7002 90.1867 31.7002C91.1054 31.7002 91.8918 31.945 92.5459 32.4346C93.2 32.9242 93.6373 33.5917 93.8578 34.4374H91.7852C91.6309 34.111 91.4104 33.8625 91.1237 33.6919C90.8445 33.5213 90.5247 33.436 90.1646 33.436C89.584 33.436 89.1136 33.64 88.7535 34.0479C88.3934 34.4559 88.2133 35.0011 88.2133 35.6835C88.2133 36.366 88.3934 36.9112 88.7535 37.3191C89.1136 37.7271 89.584 37.9311 90.1646 37.9311C90.5247 37.9311 90.8445 37.8458 91.1237 37.6752C91.4104 37.5046 91.6309 37.2561 91.7852 36.9297H93.8578C93.6373 37.7753 93.2 38.4429 92.5459 38.9325C91.8918 39.4146 91.1054 39.6557 90.1867 39.6557C89.437 39.6557 88.7645 39.4888 88.1692 39.155C87.5812 38.8138 87.1219 38.3428 86.7911 37.742C86.4604 37.1411 86.295 36.455 86.295 35.6835Z" fill="white"></path>
    <path d="M105.607 35.6835C105.607 34.9121 105.772 34.226 106.103 33.6251C106.434 33.0169 106.893 32.5459 107.481 32.2121C108.076 31.8708 108.749 31.7002 109.498 31.7002C110.417 31.7002 111.203 31.945 111.858 32.4346C112.512 32.9242 112.949 33.5917 113.17 34.4374H111.097C110.943 34.111 110.722 33.8625 110.435 33.6919C110.156 33.5213 109.836 33.436 109.476 33.436C108.896 33.436 108.425 33.64 108.065 34.0479C107.705 34.4559 107.525 35.0011 107.525 35.6835C107.525 36.366 107.705 36.9112 108.065 37.3191C108.425 37.7271 108.896 37.9311 109.476 37.9311C109.836 37.9311 110.156 37.8458 110.435 37.6752C110.722 37.5046 110.943 37.2561 111.097 36.9297H113.17C112.949 37.7753 112.512 38.4429 111.858 38.9325C111.203 39.4146 110.417 39.6557 109.498 39.6557C108.749 39.6557 108.076 39.4888 107.481 39.155C106.893 38.8138 106.434 38.3428 106.103 37.742C105.772 37.1411 105.607 36.455 105.607 35.6835Z" fill="white"></path>
    <path d="M127.123 33.3136V34.8936H129.648V36.3623H127.123V38.0758H129.979V39.6001H125.238V31.7892H129.979V33.3136H127.123Z" fill="white"></path>
    <path d="M144.917 39.678C144.351 39.678 143.844 39.5853 143.396 39.3998C142.947 39.2144 142.587 38.9399 142.315 38.5764C142.051 38.213 141.911 37.7753 141.896 37.2635H143.903C143.932 37.5528 144.031 37.7753 144.2 37.9311C144.369 38.0795 144.59 38.1536 144.862 38.1536C145.141 38.1536 145.362 38.0906 145.523 37.9645C145.685 37.831 145.766 37.6492 145.766 37.4193C145.766 37.2264 145.7 37.0669 145.567 36.9408C145.442 36.8147 145.284 36.7109 145.093 36.6293C144.91 36.5477 144.645 36.455 144.3 36.3511C143.8 36.1954 143.392 36.0396 143.076 35.8838C142.76 35.728 142.488 35.4981 142.26 35.194C142.032 34.8898 141.918 34.493 141.918 34.0034C141.918 33.2765 142.179 32.709 142.701 32.3011C143.223 31.8857 143.903 31.678 144.741 31.678C145.593 31.678 146.28 31.8857 146.802 32.3011C147.324 32.709 147.603 33.2802 147.64 34.0146H145.6C145.586 33.7624 145.494 33.5658 145.325 33.4248C145.156 33.2765 144.939 33.2023 144.674 33.2023C144.447 33.2023 144.263 33.2654 144.123 33.3915C143.984 33.5102 143.914 33.6845 143.914 33.9144C143.914 34.1666 144.031 34.3632 144.267 34.5041C144.502 34.6451 144.869 34.7971 145.369 34.9603C145.869 35.1309 146.273 35.2941 146.582 35.4499C146.898 35.6057 147.17 35.8319 147.397 36.1286C147.625 36.4253 147.739 36.8073 147.739 37.2746C147.739 37.7197 147.625 38.124 147.397 38.4874C147.177 38.8509 146.854 39.1402 146.427 39.3553C146.001 39.5704 145.498 39.678 144.917 39.678Z" fill="white"></path>
    <path d="M162.614 39.678C162.048 39.678 161.541 39.5853 161.092 39.3998C160.644 39.2144 160.284 38.9399 160.012 38.5764C159.747 38.213 159.608 37.7753 159.593 37.2635H161.6C161.629 37.5528 161.728 37.7753 161.897 37.9311C162.066 38.0795 162.287 38.1536 162.559 38.1536C162.838 38.1536 163.058 38.0906 163.22 37.9645C163.382 37.831 163.463 37.6492 163.463 37.4193C163.463 37.2264 163.396 37.0669 163.264 36.9408C163.139 36.8147 162.981 36.7109 162.79 36.6293C162.606 36.5477 162.342 36.455 161.996 36.3511C161.497 36.1954 161.089 36.0396 160.773 35.8838C160.457 35.728 160.185 35.4981 159.957 35.194C159.729 34.8898 159.615 34.493 159.615 34.0034C159.615 33.2765 159.876 32.709 160.398 32.3011C160.92 31.8857 161.6 31.678 162.437 31.678C163.29 31.678 163.977 31.8857 164.499 32.3011C165.021 32.709 165.3 33.2802 165.337 34.0146H163.297C163.283 33.7624 163.191 33.5658 163.022 33.4248C162.853 33.2765 162.636 33.2023 162.371 33.2023C162.143 33.2023 161.96 33.2654 161.82 33.3915C161.68 33.5102 161.611 33.6845 161.611 33.9144C161.611 34.1666 161.728 34.3632 161.963 34.5041C162.199 34.6451 162.566 34.7971 163.066 34.9603C163.566 35.1309 163.97 35.2941 164.278 35.4499C164.594 35.6057 164.866 35.8319 165.094 36.1286C165.322 36.4253 165.436 36.8073 165.436 37.2746C165.436 37.7197 165.322 38.124 165.094 38.4874C164.874 38.8509 164.55 39.1402 164.124 39.3553C163.698 39.5704 163.194 39.678 162.614 39.678Z" fill="white"></path>
  </symbol>
  <symbol fill="none" xmlns="http://www.w3.org/2000/svg" viewBox="0 0 14 14" id="info">
    <path d="M7.5 10V6H5.5V7H6.5V10H5V11H9V10H7.5ZM7 3C6.85166 3 6.70666 3.04399 6.58332 3.1264C6.45999 3.20881 6.36386 3.32594 6.30709 3.46299C6.25032 3.60003 6.23547 3.75083 6.26441 3.89632C6.29335 4.0418 6.36478 4.17544 6.46967 4.28033C6.57456 4.38522 6.7082 4.45665 6.85368 4.48559C6.99917 4.51453 7.14997 4.49968 7.28701 4.44291C7.42406 4.38614 7.54119 4.29001 7.6236 4.16668C7.70601 4.04334 7.75 3.89834 7.75 3.75C7.75 3.55109 7.67098 3.36032 7.53033 3.21967C7.38968 3.07902 7.19891 3 7 3Z" fill="white"></path>
    <path d="M7 14C5.61553 14 4.26216 13.5895 3.11101 12.8203C1.95987 12.0511 1.06266 10.9579 0.532846 9.67879C0.00303298 8.3997 -0.13559 6.99224 0.134506 5.63437C0.404603 4.2765 1.07129 3.02922 2.05026 2.05026C3.02922 1.07129 4.2765 0.404603 5.63437 0.134506C6.99224 -0.13559 8.3997 0.00303298 9.67879 0.532846C10.9579 1.06266 12.0511 1.95987 12.8203 3.11101C13.5895 4.26216 14 5.61553 14 7C14 8.85652 13.2625 10.637 11.9497 11.9497C10.637 13.2625 8.85652 14 7 14ZM7 1C5.81332 1 4.65328 1.3519 3.66658 2.01119C2.67989 2.67047 1.91085 3.60755 1.45673 4.7039C1.0026 5.80026 0.88378 7.00666 1.11529 8.17054C1.3468 9.33443 1.91825 10.4035 2.75736 11.2426C3.59648 12.0818 4.66558 12.6532 5.82946 12.8847C6.99335 13.1162 8.19975 12.9974 9.2961 12.5433C10.3925 12.0892 11.3295 11.3201 11.9888 10.3334C12.6481 9.34673 13 8.18669 13 7C13 5.4087 12.3679 3.88258 11.2426 2.75736C10.1174 1.63214 8.5913 1 7 1Z" fill="white"></path>
  </symbol>
  <symbol fill="none" xmlns="http://www.w3.org/2000/svg" viewBox="0 0 24 24" id="calendar">
    <path d="M3 7.5C3 5.29086 4.79086 3.5 7 3.5H17C19.2091 3.5 21 5.29086 21 7.5V18C21 20.2091 19.2091 22 17 22H7C4.79086 22 3 20.2091 3 18V7.5Z" stroke="#4FF6B1" stroke-width="1.5"></path>
    <path d="M3 9H21" stroke="#4FF6B1" stroke-width="1.5" stroke-linecap="round"></path>
    <path d="M8 2L8 5" stroke="#4FF6B1" stroke-width="1.5" stroke-linecap="round" stroke-linejoin="round"></path>
    <path d="M16 2V5" stroke="#4FF6B1" stroke-width="1.5" stroke-linecap="round" stroke-linejoin="round"></path>
    <circle cx="12" cy="15" r="1" fill="#4FF6B1"></circle>
    <circle cx="16" cy="15" r="1" fill="#4FF6B1"></circle>
    <circle cx="8" cy="15" r="1" fill="#4FF6B1"></circle>
  </symbol>
  <symbol  xmlns="http://www.w3.org/2000/svg" viewBox="0 0 16 20" id="trash">
    <path d="M7 8C7 7.44772 6.55228 7 6 7C5.44772 7 5 7.44772 5 8H7ZM5 16C5 16.5523 5.44772 17 6 17C6.55228 17 7 16.5523 7 16H5ZM11 8C11 7.44772 10.5523 7 10 7C9.44771 7 9 7.44772 9 8H11ZM9 16C9 16.5523 9.44771 17 10 17C10.5523 17 11 16.5523 11 16H9ZM3.09202 18.782L3.54601 17.891H3.54601L3.09202 18.782ZM2.21799 17.908L3.10899 17.454L3.10899 17.454L2.21799 17.908ZM13.782 17.908L12.891 17.454V17.454L13.782 17.908ZM12.908 18.782L12.454 17.891H12.454L12.908 18.782ZM1 4C0.447715 4 0 4.44771 0 5C0 5.55228 0.447715 6 1 6V4ZM15 6C15.5523 6 16 5.55228 16 5C16 4.44771 15.5523 4 15 4V6ZM3.5 5C3.5 5.55228 3.94772 6 4.5 6C5.05228 6 5.5 5.55228 5.5 5H3.5ZM10.5 5C10.5 5.55228 10.9477 6 11.5 6C12.0523 6 12.5 5.55228 12.5 5H10.5ZM5 8V16H7V8H5ZM9 8V16H11V8H9ZM13 5V15.8H15V5H13ZM10.8 18H5.2V20H10.8V18ZM1 5V15.8H3V5H1ZM5.2 18C4.62345 18 4.25117 17.9992 3.96784 17.9761C3.69617 17.9539 3.59545 17.9162 3.54601 17.891L2.63803 19.673C3.01641 19.8658 3.40963 19.9371 3.80497 19.9694C4.18864 20.0008 4.65645 20 5.2 20V18ZM1 15.8C1 16.3436 0.999222 16.8114 1.03057 17.195C1.06287 17.5904 1.13419 17.9836 1.32698 18.362L3.10899 17.454C3.0838 17.4045 3.04612 17.3038 3.02393 17.0322C3.00078 16.7488 3 16.3766 3 15.8H1ZM3.54601 17.891C3.35785 17.7951 3.20487 17.6422 3.10899 17.454L1.32698 18.362C1.6146 18.9265 2.07354 19.3854 2.63803 19.673L3.54601 17.891ZM13 15.8C13 16.3766 12.9992 16.7488 12.9761 17.0322C12.9539 17.3038 12.9162 17.4045 12.891 17.454L14.673 18.362C14.8658 17.9836 14.9371 17.5904 14.9694 17.195C15.0008 16.8114 15 16.3436 15 15.8H13ZM10.8 20C11.3436 20 11.8114 20.0008 12.195 19.9694C12.5904 19.9371 12.9836 19.8658 13.362 19.673L12.454 17.891C12.4045 17.9162 12.3038 17.9539 12.0322 17.9761C11.7488 17.9992 11.3766 18 10.8 18V20ZM12.891 17.454C12.7951 17.6422 12.6422 17.7951 12.454 17.891L13.362 19.673C13.9265 19.3854 14.3854 18.9265 14.673 18.362L12.891 17.454ZM1 6H2V4H1V6ZM2 6H14V4H2V6ZM14 6H15V4H14V6ZM5.5 4.2C5.5 3.06743 6.53305 2 8 2V0C5.60095 0 3.5 1.79795 3.5 4.2H5.5ZM8 2C9.46695 2 10.5 3.06743 10.5 4.2H12.5C12.5 1.79795 10.399 0 8 0V2ZM3.5 4.2V5H5.5V4.2H3.5ZM10.5 4.2V5H12.5V4.2H10.5Z" ></path>
  </symbol>
  <symbol fill="none" xmlns="http://www.w3.org/2000/svg" viewBox="0 0 12 12" id="plus">
    <path d="M1 7C0.734784 7 0.48043 6.89464 0.292893 6.70711C0.105357 6.51957 0 6.26522 0 6C0 5.73478 0.105357 5.48043 0.292893 5.29289C0.48043 5.10536 0.734784 5 1 5H11C11.2652 5 11.5196 5.10536 11.7071 5.29289C11.8946 5.48043 12 5.73478 12 6C12 6.26522 11.8946 6.51957 11.7071 6.70711C11.5196 6.89464 11.2652 7 11 7H1Z" fill="#4FF6B1"></path>
    <path d="M5 1C5 0.734784 5.10536 0.48043 5.29289 0.292893C5.48043 0.105357 5.73478 0 6 0C6.26522 0 6.51957 0.105357 6.70711 0.292893C6.89464 0.48043 7 0.734784 7 1V11C7 11.2652 6.89464 11.5196 6.70711 11.7071C6.51957 11.8946 6.26522 12 6 12C5.73478 12 5.48043 11.8946 5.29289 11.7071C5.10536 11.5196 5 11.2652 5 11V1Z" fill="#4FF6B1"></path>
  </symbol>
</svg>